<svg xmlns="http://www.w3.org/2000/svg" viewBox="0 0 730.3 459.94"><defs><style>.cls-1{isolation:isolate;}.cls-2{fill:#c5cdff;}.cls-3{fill:#f2c87e;}.cls-4{fill:#272c70;}.cls-14,.cls-5{fill:#e26489;}.cls-6{fill:#e99cd1;}.cls-10,.cls-11,.cls-16,.cls-17,.cls-18,.cls-29,.cls-7{fill:none;stroke-miterlimit:10;}.cls-7{stroke:#672e62;stroke-width:0.94px;}.cls-8{fill:#6f82ff;}.cls-9{fill:#fc9754;}.cls-10,.cls-11,.cls-16,.cls-17,.cls-18{stroke:#272c70;}.cls-10{stroke-width:4.58px;}.cls-11{stroke-width:2.21px;}.cls-12{fill:#e92249;}.cls-13{fill:#30326e;}.cls-14{mix-blend-mode:multiply;}.cls-15,.cls-23{fill:#ecf1ff;}.cls-17{stroke-dasharray:2.26;}.cls-18{stroke-width:2px;stroke-dasharray:4.57;}.cls-19{fill:#fb726e;}.cls-20{fill:#4577f5;}.cls-21{fill:#2d4ea9;}.cls-22{fill:#fff;}.cls-23{font-size:37.39px;font-family:Poppins-ExtraBold, Poppins ExtraBold;font-weight:800;}.cls-24{letter-spacing:0.01em;}.cls-25{letter-spacing:0.02em;}.cls-26{letter-spacing:-0.01em;}.cls-27{letter-spacing:0.01em;}.cls-28{letter-spacing:0em;}.cls-29{stroke:#ecf1ff;}.cls-30{letter-spacing:-0.02em;}.cls-31{letter-spacing:-0.02em;}.cls-32{letter-spacing:-0.01em;}.cls-33{letter-spacing:-0.03em;}.cls-34{letter-spacing:-0.02em;}.cls-35{letter-spacing:-0.02em;}.cls-36{letter-spacing:-0.01em;}.cls-37{letter-spacing:-0.01em;}.cls-38{fill:#32338c;}</style></defs><g class="cls-1"><g id="BACKGROUND"><path class="cls-2" d="M359.71,431.24C379.59,463.59,420.93,481.13,458,473c27.33-6,53.82-24.53,80.89-17.42,10.78,2.83,20.22,9.57,31,12.43,12.34,3.29,25.46,1.25,37.86-1.84,12.72-3.17,25.46-7.57,35.75-15.7,22.53-17.8,28.71-49.21,29.71-77.91.6-17.32-.14-34.91-5.19-51.48-8-26.39-26.85-48.85-50.11-63.66s-50.73-22.29-78.25-24.05c-19.92-1.28-40.22.39-59.07,7-22.63,7.87-42.3,22.43-60.46,38.06-14,12.09-26.23,26.16-40.11,38.32-9.53,8.36-17.8,12.82-23.77,24.7C342.27,369.14,343.39,404.7,359.71,431.24Z" transform="translate(0.82 -16.11)"/><path class="cls-2" d="M96.37,129.13C91.78,95.05,108.2,59,136.92,40.1c20-13.14,44.23-18,68-19.93,14.23-1.14,28.86-1.27,42.4,3.25,37.26,12.44,57.41,56.49,95.07,67.64,13.87,4.11,28.77,3.24,42.79,6.76,24.87,6.27,44.93,26.44,54.52,50.23s9.5,50.7,3.5,75.63c-6.27,26-21.47,52.72-47.09,60.38-11.92,3.57-24.67,2.56-37,3.91a98.08,98.08,0,0,0-53.32,23.25c-9.06,7.86-16.66,17.39-26.3,24.53-18.55,13.74-43.44,17.31-66,12.53s-43-17.21-60.18-32.64c-7-6.29-13.65-13.25-17.79-21.71-11.78-24.07-3.45-55.65-10.33-81.77C117.68,183.75,100.32,158.58,96.37,129.13Z" transform="translate(0.82 -16.11)"/><path class="cls-2" d="M516.07,185.68c2.83,6.71,10.45,9.82,15.47,15.09s7.48,12.9,13.19,17.5a18.13,18.13,0,0,0,27.81-6.46c2-4.32,2.24-9.24,2-14-.39-7.16-1.93-14.47-5.95-20.41-6.32-9.36-22.28-17.92-33.83-16.93C523.92,161.4,511.31,174.45,516.07,185.68Z" transform="translate(0.82 -16.11)"/><path class="cls-2" d="M558.74,119.78c5.71,22.23,24.43,38.91,44.6,49.84,15.11,8.19,32,14,49.14,13.48,35.44-1.11,66.73-32.26,70.1-67.55s-19.9-70.81-52.86-83.87C614.86,9.93,542.39,56.07,558.74,119.78Z" transform="translate(0.82 -16.11)"/><path class="cls-2" d="M68.25,470.46c15.24,7.64,33.71,5.29,49.68-.68,12-4.48,23.44-11.07,31.52-21,16.66-20.4,14.47-53.12-3.66-72.22S96.41,353.21,73,365.3C34.07,385.43,24.58,448.55,68.25,470.46Z" transform="translate(0.82 -16.11)"/><path class="cls-2" d="M696.65,305.51c-4.78-.17-9.18,3.49-10.67,8s-.37,9.65,2.16,13.7a18.87,18.87,0,0,0,12,8.65A15,15,0,0,0,714,331.62c4.49-4.95,4.44-13.14.47-18.53s-11.2-7.88-17.82-6.9" transform="translate(0.82 -16.11)"/><path class="cls-2" d="M48.48,190.8c-4.78-.18-9.18,3.49-10.67,8s-.37,9.65,2.16,13.71a18.86,18.86,0,0,0,12,8.64,15,15,0,0,0,13.87-4.26c4.49-5,4.44-13.15.47-18.53s-11.2-7.88-17.82-6.9" transform="translate(0.82 -16.11)"/><path class="cls-2" d="M73.92,235.53a43.56,43.56,0,0,1,13.44,16.86c2.08,4.41,3.62,9.24,3.23,14.11a25.37,25.37,0,0,1-4.91,12.34c-2.85,4.05-6.65,7.65-11.37,9.17s-10.42.6-13.68-3.13c-4.19-4.79-3.26-12.25-6.28-17.85-2.11-3.9-6-6.55-8.69-10a21.66,21.66,0,0,1-4.36-16.27,14.44,14.44,0,0,1,4-8.49C52.36,225.6,67.33,230.77,73.92,235.53Z" transform="translate(0.82 -16.11)"/><path class="cls-2" d="M70.06,57.52a25.5,25.5,0,0,1,4.77-11.73,16.6,16.6,0,0,1,6.29-5.72,14.91,14.91,0,0,1,7.74-1,13.7,13.7,0,0,1,8,3.18,7.7,7.7,0,0,1,2.33,7.92c-1.25,3.52-5.34,5.19-7.34,8.35-1.39,2.2-1.64,4.93-2.64,7.34a12.74,12.74,0,0,1-7.08,6.91,8.43,8.43,0,0,1-5.51.38C71.17,71.43,69.51,62.27,70.06,57.52Z" transform="translate(0.82 -16.11)"/></g><g id="OBJECTS"><polygon class="cls-3" points="400.91 83.47 382.22 58.08 439.22 16.21 457.91 41.6 400.91 83.47"/><rect class="cls-4" x="371.37" y="85.06" width="31.53" height="8.94" transform="translate(230.54 -291.42) rotate(53.64)"/><path class="cls-5" d="M374.19,79.49l18.69,25.39L381,113.63c-5.89,4.34-14.85,2.17-20-4.85h0c-5.16-7-4.57-16.21,1.32-20.54Z" transform="translate(0.82 -16.11)"/><path class="cls-4" d="M469.33,38l10.13-16.31L461,26.46A30.23,30.23,0,0,0,469.33,38Z" transform="translate(0.82 -16.11)"/><path class="cls-6" d="M457.09,57.71,469.33,38A30.23,30.23,0,0,1,461,26.46l-22.61,5.86Z" transform="translate(0.82 -16.11)"/><line class="cls-7" x1="452.79" y1="34.65" x2="395.79" y2="76.52"/><line class="cls-7" x1="448.56" y1="28.9" x2="391.56" y2="70.77"/><line class="cls-7" x1="444.33" y1="23.16" x2="387.34" y2="65.03"/><rect class="cls-5" x="545.81" y="394.99" width="15.33" height="48.92" transform="translate(177.17 -179.8) rotate(19.95)"/><rect class="cls-8" x="573.62" y="374.18" width="15.33" height="78.87" transform="translate(176.85 -189.64) rotate(19.95)"/><rect class="cls-4" x="588.01" y="429.67" width="15.33" height="30.16" transform="translate(188.34 -192.68) rotate(19.95)"/><rect class="cls-9" x="614.18" y="405.15" width="15.33" height="63.12" transform="translate(187.16 -202.09) rotate(19.95)"/><line class="cls-10" x1="632.62" y1="457.79" x2="521.29" y2="417.38"/><polygon class="cls-11" points="680.93 260.19 627.57 280.71 618.66 337.19 663.12 373.14 716.48 352.61 725.39 296.14 680.93 260.19"/><line class="cls-11" x1="680.93" y1="260.19" x2="663.12" y2="373.14"/><line class="cls-11" x1="627.57" y1="280.71" x2="716.48" y2="352.61"/><line class="cls-11" x1="725.39" y1="296.14" x2="618.66" y2="337.19"/><path class="cls-9" d="M685.21,274.34a5.46,5.46,0,1,1-7.06-3.14A5.45,5.45,0,0,1,685.21,274.34Z" transform="translate(0.82 -16.11)"/><path class="cls-9" d="M622.81,351.28a5.46,5.46,0,1,1-7.06-3.14A5.45,5.45,0,0,1,622.81,351.28Z" transform="translate(0.82 -16.11)"/><path class="cls-9" d="M729.11,310.39a5.46,5.46,0,1,1-7.06-3.13A5.46,5.46,0,0,1,729.11,310.39Z" transform="translate(0.82 -16.11)"/><circle class="cls-9" cx="716.48" cy="352.61" r="5.46"/><path class="cls-9" d="M632.12,294.75a5.46,5.46,0,1,1-7.06-3.13A5.46,5.46,0,0,1,632.12,294.75Z" transform="translate(0.82 -16.11)"/><path class="cls-9" d="M667.67,387.18a5.46,5.46,0,1,1-7.06-3.13A5.46,5.46,0,0,1,667.67,387.18Z" transform="translate(0.82 -16.11)"/><polygon class="cls-5" points="256.89 408.05 264.6 369.07 295.1 376.77 288.67 416.08 256.89 408.05"/><path class="cls-9" d="M206,462.31c3.4-6.57,20.86-11.61,31-18.13s19.1-20,19.1-20l31.78,8,3.81,23.68L203.71,470A22.38,22.38,0,0,1,206,462.31Z" transform="translate(0.82 -16.11)"/><path class="cls-4" d="M291.65,455.87l.88,5.43-88.84,14.31a22.9,22.9,0,0,1,0-5.58Z" transform="translate(0.82 -16.11)"/><path class="cls-4" d="M219.58,448a18.35,18.35,0,0,1,5.07.25,23.59,23.59,0,0,1,9.37,3.84,18.37,18.37,0,0,1,3.77,3.38c-1.49-.8-2.94-1.59-4.4-2.32s-2.94-1.42-4.45-2-3-1.17-4.59-1.68S221.21,448.48,219.58,448Z" transform="translate(0.82 -16.11)"/><path class="cls-4" d="M224.37,444.23a18.35,18.35,0,0,1,5.07.25,23.59,23.59,0,0,1,9.37,3.84,18.37,18.37,0,0,1,3.77,3.38c-1.49-.8-2.94-1.59-4.4-2.32s-2.94-1.42-4.45-2-3-1.17-4.59-1.68S226,444.71,224.37,444.23Z" transform="translate(0.82 -16.11)"/><path class="cls-4" d="M230.08,439.91a18.67,18.67,0,0,1,5.06.25,24.65,24.65,0,0,1,4.89,1.42,23.92,23.92,0,0,1,4.48,2.42,18.42,18.42,0,0,1,3.78,3.38c-1.5-.8-2.94-1.59-4.41-2.32s-2.94-1.42-4.45-2-3-1.17-4.59-1.69S231.7,440.4,230.08,439.91Z" transform="translate(0.82 -16.11)"/><polygon class="cls-5" points="150.71 221.52 189.02 211 195.77 241.73 157.73 253.54 150.71 221.52"/><path class="cls-9" d="M93.39,209.9c7.4.11,19.71,13.48,30.06,19.59s26.44,8.14,26.44,8.14l7,32-19.47,14-52-72.35A22.65,22.65,0,0,1,93.39,209.9Z" transform="translate(0.82 -16.11)"/><path class="cls-4" d="M137.43,283.64,133,286.85l-52.5-73.08a22.6,22.6,0,0,1,5-2.48Z" transform="translate(0.82 -16.11)"/><path class="cls-4" d="M112.26,215.65a18.66,18.66,0,0,1,2,4.64,24.3,24.3,0,0,1,.92,5,24.73,24.73,0,0,1-.16,5.09,18.87,18.87,0,0,1-1.34,4.89c0-1.7.1-3.34.11-5s0-3.26-.18-4.88-.31-3.24-.55-4.86S112.55,217.32,112.26,215.65Z" transform="translate(0.82 -16.11)"/><path class="cls-4" d="M117.77,218.25a18.69,18.69,0,0,1,2,4.64,24.28,24.28,0,0,1,.91,5,23.41,23.41,0,0,1-.16,5.09,18.49,18.49,0,0,1-1.34,4.89c0-1.7.11-3.34.11-5s0-3.26-.18-4.88-.31-3.24-.54-4.86S118.07,219.92,117.77,218.25Z" transform="translate(0.82 -16.11)"/><path class="cls-4" d="M124.18,221.42a18.86,18.86,0,0,1,2,4.64,24.41,24.41,0,0,1,.91,5,23.41,23.41,0,0,1-.16,5.09,18.38,18.38,0,0,1-1.34,4.89c0-1.69.11-3.34.11-5s0-3.26-.18-4.88-.31-3.24-.54-4.86S124.48,223.09,124.18,221.42Z" transform="translate(0.82 -16.11)"/><polygon class="cls-5" points="367.93 134.17 355.31 134.79 330.25 63.04 315.44 64.73 338.64 164.79 383.31 166.79 367.93 134.17"/><polygon class="cls-5" points="575.68 238.46 596.28 281.71 522.07 364.15 513.45 350.67 559.01 277.12 542.02 250.95 575.68 238.46"/><path class="cls-4" d="M466.5,290.42s-7.33,70.47-55.81,73.32-77.81-37.48-77.81-37.48l-20.77,87.18a78.9,78.9,0,0,1-34.22-2c-18.33-5.29-25.66-12.63-25.66-12.63S264.85,318.93,271,296.12a323.21,323.21,0,0,1,15.36-43.3l-98.87,33.11s-11.4-9.36-20-27.29-8.14-29.74-8.14-29.74S262.82,180,289.7,185.32s94.63,58.89,94.63,58.89l6-8.79Z" transform="translate(0.82 -16.11)"/><path class="cls-5" d="M579.9,100.93c-10.59,21-40.65,62.09-73.87,45.32s-12.52-62.59-1.92-83.58a42.45,42.45,0,1,1,75.79,38.26Z" transform="translate(0.82 -16.11)"/><path class="cls-4" d="M537,99.25c-1.15,2-.93,4.26.49,5.08s3.5-.13,4.64-2.11.93-4.26-.49-5.08S538.12,97.27,537,99.25Z" transform="translate(0.82 -16.11)"/><path class="cls-4" d="M511,85c-1.14,2-.92,4.25.5,5.07s3.5-.12,4.64-2.11.92-4.25-.5-5.07S512.19,83,511,85Z" transform="translate(0.82 -16.11)"/><path class="cls-4" d="M505.4,74.43a23.79,23.79,0,0,1,6.46-2.52,25.21,25.21,0,0,1,7-.6l1.78.11,1.8.19c.59.11,1.18.24,1.76.4s1.14.42,1.69.65a12.88,12.88,0,0,1,5.46,4.67l-.2.27c-2.36-.58-4.39-1.25-6.46-1.8-.51-.13-1-.27-1.52-.45s-1-.31-1.51-.5l-1.53-.5L518.61,74a28.84,28.84,0,0,0-6.51-.41,26.75,26.75,0,0,0-6.57,1.16Z" transform="translate(0.82 -16.11)"/><path class="cls-4" d="M553.81,99.81a26.21,26.21,0,0,0-3-6,28.07,28.07,0,0,0-4.19-5c-.41-.35-.81-.71-1.23-1l-1.31-.94c-.45-.29-.88-.59-1.3-.92s-.85-.62-1.27-1c-1.67-1.34-3.41-2.58-5.27-4.13l.1-.32a12.88,12.88,0,0,1,7,1.61c.52.31,1,.63,1.53,1s.92.78,1.36,1.19l1.23,1.33c.37.47.76.92,1.15,1.37a25.5,25.5,0,0,1,3.69,6,23.73,23.73,0,0,1,1.82,6.7Z" transform="translate(0.82 -16.11)"/><path class="cls-12" d="M505.75,120.82a7.8,7.8,0,0,0,3.93,4.67c3.64,1.82,7.59.28,10.56-1.63A25.63,25.63,0,0,0,505.75,120.82Z" transform="translate(0.82 -16.11)"/><path class="cls-4" d="M520.24,123.86a26.62,26.62,0,0,0,4.73-3.93s-8.91.82-12.85-1.83a22,22,0,0,1-6.33-7.4s-1.57,5.59,0,10.12A25.63,25.63,0,0,1,520.24,123.86Z" transform="translate(0.82 -16.11)"/><path class="cls-13" d="M563.37,121.69c-4.5-4.69-6.26-11.69-5.59-18.35s3.52-13,7.22-18.59c-9,3.34-19.82,3.66-29.28,2.91-.92-.07-2.08-.4-2.14-1.34s.82-1.41,1.56-1.77l18.94-9.33a37.72,37.72,0,0,1-18.51-1.09A110.41,110.41,0,0,1,518.38,67c-3.91-1.88-8.94-4.94-12-8.06,0,0-1.85,3.11-4.5,8.16-4.17-3.81-7.9-8.13-9.12-13.76a10.48,10.48,0,0,1,.18-5.61A10.18,10.18,0,0,1,496.58,43a20.06,20.06,0,0,1,5.31-2.72,79.35,79.35,0,0,1,10.51-2.41s-10.76-2.28-10-6.34c.37-1.95,2.41-3,4.28-3.57,14.81-4.37,30.46-.68,44.84,4.19C565.64,36.92,580,43.28,589.09,55.2a27.67,27.67,0,0,1,5.25,10.44A16.59,16.59,0,0,1,593,77.3c3.57,3.11,7.28,6.85,8.75,11.45s.39,9.83-1.62,14.35c-5.19,11.62-16.78,20.13-29.1,21.37" transform="translate(0.82 -16.11)"/><path class="cls-5" d="M578.48,128.91a21.39,21.39,0,0,1-10.08,7.47,16.06,16.06,0,0,1-8,1,8.17,8.17,0,0,1-6-4,10.63,10.63,0,0,1-.62-7.07c1.22-5.71,5.55-11,10.8-14.06,3.65-2.12,7.95-3.24,11.51-2.12C583.26,112.35,582.85,122.74,578.48,128.91Z" transform="translate(0.82 -16.11)"/><path class="cls-14" d="M555.73,128.1a9.78,9.78,0,0,0,5.37.46,1.8,1.8,0,0,0,1.4-.87,1.67,1.67,0,0,0,0-.94,15.8,15.8,0,0,0-1.74-5.17,32.8,32.8,0,0,1,6.22-4.66,10,10,0,0,1,7.29-1.09,5.6,5.6,0,0,1,4.08,5.48s.09,7.6-10,11.17C557.8,136.24,555.73,128.1,555.73,128.1Z" transform="translate(0.82 -16.11)"/><path class="cls-4" d="M578.39,121.31a5.43,5.43,0,0,0-2.87-4.31,7,7,0,0,0-5-.46,14.65,14.65,0,0,0-4.78,2.26,54.81,54.81,0,0,0-4.33,3.47l.19-1.12a16.37,16.37,0,0,1,1.27,3.35,17.55,17.55,0,0,1,.32,1.76,6.31,6.31,0,0,1,.08,1,1.75,1.75,0,0,1-.51,1.2,3,3,0,0,1-1.93.69,8.82,8.82,0,0,1-1.78,0,8.57,8.57,0,0,1-3.32-1,10.35,10.35,0,0,0,4.94,0,2,2,0,0,0,1.17-.54.47.47,0,0,0,.07-.35,5.81,5.81,0,0,0-.14-.71,13.92,13.92,0,0,0-.45-1.56A14.85,14.85,0,0,0,560,122l-.36-.61.56-.51a38.61,38.61,0,0,1,4.48-3.67,14,14,0,0,1,5.51-2.33,7.66,7.66,0,0,1,5.93,1.18A5.37,5.37,0,0,1,578.39,121.31Z" transform="translate(0.82 -16.11)"/><path class="cls-4" d="M531.57,87.57A12.83,12.83,0,0,1,525.08,95a12.22,12.22,0,0,1-2.42.93c-.83.22-1.66.37-2.44.53a7.86,7.86,0,0,0-4,1.68,10.12,10.12,0,0,0-3.46,8,9.7,9.7,0,0,0,4.65,7.73,9.18,9.18,0,0,1-6.08-7.6,10.89,10.89,0,0,1,3.7-9.51,7.94,7.94,0,0,1,2.38-1.37,13.66,13.66,0,0,1,2.53-.61c.83-.12,1.62-.22,2.37-.38a15.62,15.62,0,0,0,2.21-.67A14.85,14.85,0,0,0,531.57,87.57Z" transform="translate(0.82 -16.11)"/><path class="cls-9" d="M554.9,217.91c-13.17-23.08-21.82-29.28-28.23-40.3L483.2,194.28s.22-26.55.34-41.16c-8.83-3.34-19.16-8.47-32.91-9.58-18.45-1.5-83.53,6.74-83.53,6.74l.82,44,47.25-2.85-24.85,44s2.85,13.85,26.07,32.59,50.11,22.41,50.11,22.41l49.8-44.24,19.45,31.2,39.11-22.81S563,232.14,554.9,217.91Z" transform="translate(0.82 -16.11)"/><path class="cls-5" d="M524.29,173a8.06,8.06,0,0,1-.76-2.77c0-6.11,12.33-23.38,12.33-23.38l-33.08-4.37s-6.57,13.94-13.07,12.67l-1.62,31.38Z" transform="translate(0.82 -16.11)"/><path class="cls-3" d="M526.67,177.61a40.48,40.48,0,0,1-2.38-4.6l-36.2,13.53,1.62-31.38a59.45,59.45,0,0,1-6.17-2c-.12,14.61-.34,41.16-.34,41.16Z" transform="translate(0.82 -16.11)"/><path class="cls-5" d="M512.62,366.78s-25.29,3.72-34.53,7.58S446.94,394.13,447.8,398s28.36-13.75,28.36-13.75-9.89,7.52-15.69,12.67-10.53,12.7-8.16,13.76,28.14-16.76,28.14-16.76S456.9,414,458.92,416.82s26.91-18.61,26.91-18.61S472.31,414,476,415.41c4.38,1.7,8.34-7.64,12.58-11.17s8.16-6.89,8.16-6.89,9.67-.43,16.33-5.58a22.66,22.66,0,0,0,8.14-11.51" transform="translate(0.82 -16.11)"/><path class="cls-5" d="M329.43,79.16s6.67-21.71,6.27-30.1-.58-12.45-2.14-13.29-3.75,4-3.28,7.1S327,52.38,327,52.38s-8.49-33.56-12.35-33.91,2.77,30,2.77,30-10.7-33.53-15-32.3,8.13,33.53,8.13,33.53-13.61-24.36-17.11-23.51,10.94,26.58,10.94,26.58-10.47-9.64-13.1-9,23.36,37.09,23.36,37.09Z" transform="translate(0.82 -16.11)"/><path class="cls-4" d="M327.93,51.1a58.55,58.55,0,0,0-6.19,10.26A26.05,26.05,0,0,0,319.81,67a14.51,14.51,0,0,0-.11,5.91,11.51,11.51,0,0,1-.66-6,21.11,21.11,0,0,1,1.79-5.87A31.4,31.4,0,0,1,327.93,51.1Z" transform="translate(0.82 -16.11)"/><path class="cls-4" d="M535.34,147.64c-20.66,4.84-33.37-3.81-33.37-3.81l-3.82,6.32s13.63,5.1,21.8,3.87C528,152.81,535.34,147.64,535.34,147.64Z" transform="translate(0.82 -16.11)"/><path class="cls-15" d="M285.76,254.14a35.73,35.73,0,0,1,14.47-16.57,36.58,36.58,0,0,1,10.37-4.3,34.88,34.88,0,0,1,11.25-.83c7.57.6,14.69,3.59,21.18,7.23a202,202,0,0,1,18.53,12.4c11.94,8.75,23.93,17.44,35.82,26.26l17.81,13.26c5.9,4.48,11.83,8.91,17.69,13.44-6.12-4.17-12.17-8.43-18.26-12.64l-18.14-12.82c-12.08-8.56-24.06-17.26-36.09-25.88a201.15,201.15,0,0,0-18.25-12.44c-6.34-3.65-13.21-6.47-20.44-7.28a33.35,33.35,0,0,0-10.82.52,36.64,36.64,0,0,0-10.16,3.92A36.16,36.16,0,0,0,285.76,254.14Z" transform="translate(0.82 -16.11)"/><path class="cls-4" d="M501.22,220.63c3.51,4.33,6.76,8.82,9.9,13.39,1.6,2.27,3.1,4.6,4.64,6.9s3,4.68,4.46,7,2.87,4.75,4.27,7.14,2.77,4.81,4.06,7.27a147,147,0,0,1,7.2,15c-3.17-4.58-6.22-9.19-9.22-13.84-1.52-2.31-3-4.67-4.47-7l-4.4-7-4.3-7.1c-1.4-2.38-2.85-4.74-4.21-7.16C506.38,230.47,503.68,225.63,501.22,220.63Z" transform="translate(0.82 -16.11)"/><path class="cls-4" d="M408.36,204a94,94,0,0,1,5.49-12.56c1-2,2.19-4,3.32-6s2.4-3.89,3.64-5.81a123.36,123.36,0,0,1,8.19-11,92.24,92.24,0,0,1,9.45-9.92c-2.47,3.86-5,7.59-7.59,11.33l-7.55,11.24-1.89,2.81c-.61.94-1.21,1.9-1.85,2.83l-1.85,2.84c-.6.95-1.22,1.9-1.85,2.84C413.4,196.44,411,200.26,408.36,204Z" transform="translate(0.82 -16.11)"/><path class="cls-16" d="M375,149.37a360.77,360.77,0,0,0,1.86,44.1" transform="translate(0.82 -16.11)"/><path class="cls-17" d="M378.88,148.82a360.77,360.77,0,0,0,1.86,44.1" transform="translate(0.82 -16.11)"/><path class="cls-16" d="M531,268.82a383.87,383.87,0,0,0,38.54-24.35" transform="translate(0.82 -16.11)"/><path class="cls-17" d="M529.83,264.94a359.91,359.91,0,0,0,37.34-23.54" transform="translate(0.82 -16.11)"/><path class="cls-18" d="M633.72,220.76c-4.66,12.39-15.5,21.28-26.26,29-21.81,15.59-46.32,29.16-73.06,31-29.07,2-57.86-10.31-80.16-29.06A154.41,154.41,0,0,1,401,153.93c-.75-6-1.13-12.09.5-17.86,3.44-12.15,16.62-20.68,29.11-18.85s22.66,13.8,22.46,26.42" transform="translate(0.82 -16.11)"/><path class="cls-18" d="M477.63,282.89c4,18.85,12.3,81.68,10.23,100.83s-11.28,38.58-28.07,48.06c-14.77,8.34-33.36,7.77-49.25,1.82s-29.48-16.73-41.93-28.26C321.3,361.56,282.27,260.77,265.24,198.6c-2.79-10.19-3.17-20.77-4.81-31.21-3.86-24.51,25.56-42.76,43.57-20,8.21,10.39,20.38,41.69,21.85,54.85" transform="translate(0.82 -16.11)"/><path class="cls-18" d="M368.53,348.68c8,11.1,15.5,23.15,17.13,36.7s-4.32,28.91-16.89,34.21c-8.76,3.7-19.08,1.9-27.46-2.6s-15.17-11.41-21.66-18.35c-21.58-23.11-41.46-47.86-64.51-69.49-13.58-12.74-29.17-24.78-47.58-27.55-26.32-3.94-54.06,14.9-60.08,40.82-3.32,14.28-.68,29.16-.11,43.8s-1.59,30.7-12.13,40.89c-6.73,6.5-16.06,9.7-25.33,11-22,3.12-44.73-3.55-63.47-15.54S12.6,393.6,0,375.26" transform="translate(0.82 -16.11)"/><path class="cls-9" d="M671.83,237.7c6.55-11.4,8.22-25.79,3.31-37.95a13.54,13.54,0,0,0-3.78.86c-2.68,1-4.9,2.9-7.06,4.76-4.38,3.78-9.11,8.28-9.22,14.06-.05,3.06,1.24,6,1.19,9.08-.1,5.71-4.67,10.2-8.92,14l-8.75,7.84c3.31,2.19,7.46,2.75,11.43,2.58a31.89,31.89,0,0,0,11.44-2.54A52.39,52.39,0,0,0,671.83,237.7Z" transform="translate(0.82 -16.11)"/><path class="cls-19" d="M675.14,199.75c4.91,12.16,3.24,26.55-3.31,37.95a52.39,52.39,0,0,1-10.36,12.7c6.6-2.85,12.29-8,17.86-15.48C687.18,224.41,688.28,198.9,675.14,199.75Z" transform="translate(0.82 -16.11)"/><path class="cls-19" d="M616.12,191.74A46.55,46.55,0,0,1,645,176.93c-3.24-12.36-27-4.14-34.83,6.27-8.54,11.42-11.89,21.58-9,33.2a22.36,22.36,0,0,0,3.3,7.6A46.54,46.54,0,0,1,616.12,191.74Z" transform="translate(0.82 -16.11)"/><path class="cls-9" d="M645.32,181.15a13,13,0,0,0-.33-4.22A45.56,45.56,0,0,0,604.46,224a14.35,14.35,0,0,0,2.41,2.64l5-10.61c2.46-5.16,5.47-10.82,10.92-12.52,2.92-.92,6.13-.51,9-1.43,5.52-1.75,8.49-7.55,10.88-12.82C643.93,186.66,645.13,184,645.32,181.15Z" transform="translate(0.82 -16.11)"/><path class="cls-4" d="M718,156.12c6.15-24.12-1.83-42.52-1.83-42.52s-19.81-2.45-41.14,10.16a85.52,85.52,0,0,0,43,32.36Z" transform="translate(0.82 -16.11)"/><path class="cls-20" d="M672.64,216.39c8.87-6.06,20.31-16.13,32.24-32.71A81.84,81.84,0,0,0,718,156.12a85.52,85.52,0,0,1-43-32.36,81.31,81.31,0,0,0-22.9,20.44c-12.33,15.88-18.76,29.51-22.1,39.68A125.3,125.3,0,0,0,672.64,216.39Z" transform="translate(0.82 -16.11)"/><path class="cls-4" d="M665.61,220.69a81,81,0,0,0,7-4.3A125.3,125.3,0,0,1,630,183.88c-.72,2.21-1.3,4.25-1.77,6.12A125.37,125.37,0,0,0,665.61,220.69Z" transform="translate(0.82 -16.11)"/><path class="cls-20" d="M628.22,190c-2.13,8.6-1.8,13.5-1.8,13.5l14.42,10.78,14.42,10.78a44.43,44.43,0,0,0,10.35-4.37A125.37,125.37,0,0,1,628.22,190Z" transform="translate(0.82 -16.11)"/><path class="cls-9" d="M662.48,187.8c15.56,11.64-32.67,56-38.3,51.78S646.91,176.16,662.48,187.8Z" transform="translate(0.82 -16.11)"/><path class="cls-3" d="M695.19,170.28A15.59,15.59,0,1,1,692,148.46,15.58,15.58,0,0,1,695.19,170.28Z" transform="translate(0.82 -16.11)"/><path class="cls-4" d="M687.93,150a12.12,12.12,0,1,0-1.62,22.5,30.85,30.85,0,0,0,2.9-7.2A23,23,0,0,0,687.93,150Z" transform="translate(0.82 -16.11)"/><path class="cls-8" d="M690,151.24a12.92,12.92,0,0,0-2-1.23,23,23,0,0,1,1.28,15.3,30.85,30.85,0,0,1-2.9,7.2A12.11,12.11,0,0,0,690,151.24Z" transform="translate(0.82 -16.11)"/><rect class="cls-21" x="132.69" y="347.86" width="7.05" height="44.19" transform="translate(-247.16 265.45) rotate(-56.83)"/><path class="cls-9" d="M196.32,409.25h0a6.22,6.22,0,0,1-8.6,1.8l-48.56-31.74,6.81-10.4,48.55,31.73A6.22,6.22,0,0,1,196.32,409.25Z" transform="translate(0.82 -16.11)"/><circle class="cls-4" cx="97.01" cy="344.33" r="39.18" transform="translate(-186.52 111.15) rotate(-36.91)"/><path class="cls-2" d="M71.15,327.43a30.88,30.88,0,0,0,14,45.42q-6.39-23.57-12.77-47.13C71.94,326.27,71.53,326.84,71.15,327.43Z" transform="translate(0.82 -16.11)"/><path class="cls-2" d="M122.87,361.23a30.9,30.9,0,0,0-9-42.76,30.42,30.42,0,0,0-7-3.4q7.18,23.49,15.66,46.56C122.68,361.5,122.78,361.37,122.87,361.23Z" transform="translate(0.82 -16.11)"/><path class="cls-22" d="M114.83,369.57a30.88,30.88,0,0,0,7.76-7.94q-8.48-23.06-15.66-46.56a30.72,30.72,0,0,0-10.7-1.62Q104.65,341.79,114.83,369.57Z" transform="translate(0.82 -16.11)"/><path class="cls-2" d="M87.08,315.08q8.1,29.79,17.63,59.17a31.19,31.19,0,0,0,10.12-4.68q-10.18-27.76-18.6-56.12A31,31,0,0,0,87.08,315.08Z" transform="translate(0.82 -16.11)"/><path class="cls-22" d="M72.36,325.72q6.39,23.56,12.77,47.13a30.87,30.87,0,0,0,19.58,1.4q-9.52-29.37-17.63-59.17A30.72,30.72,0,0,0,72.36,325.72Z" transform="translate(0.82 -16.11)"/><path class="cls-4" d="M23.8,81.23c-4.5,25.25,6.07,53.68,28.93,65.39,26.47,13.56,81.55-.64,110.61.57,18.74.78,51.79,11,69.82,6.64,22.7-5.51,37.07-35.39,34.94-59.57s-16.6-41.79-42.21-48.1c-33.81-8.33-50.78,10-139-3.93C54,37,28.66,53.93,23.8,81.23Z" transform="translate(0.82 -16.11)"/><path class="cls-4" d="M256.28,92.2A247.34,247.34,0,0,0,302,102.38a146.63,146.63,0,0,1-45.58,5.53" transform="translate(0.82 -16.11)"/><text class="cls-23" transform="translate(95.52 80.85)"><tspan class="cls-24">A<tspan class="cls-25" x="23.1" y="0">X</tspan><tspan class="cls-26" x="45.03" y="0">T</tspan><tspan class="cls-27" x="63.29" y="0">R</tspan><tspan class="cls-28" x="83.6" y="0">A</tspan></tspan><tspan class="cls-29"><tspan class="cls-30" x="-35.08" y="34.27">B</tspan><tspan x="-15.39" y="34.27">u </tspan><tspan class="cls-31" x="13.14" y="34.27">S</tspan><tspan class="cls-32" x="30.73" y="34.27">u</tspan><tspan class="cls-33" x="50.83" y="34.27">c</tspan><tspan class="cls-34" x="66.55" y="34.27">e</tspan><tspan class="cls-35" x="84.63" y="34.27">s</tspan><tspan class="cls-36" x="98.66" y="34.27">s</tspan><tspan class="cls-37" x="113" y="34.27">o</tspan><tspan class="cls-28" x="132.96" y="34.27">!</tspan></tspan></text><text x="0.82" y="-16.11"/><polygon class="cls-38" points="622.61 95.3 629.63 92.39 631.84 86.06 634.06 92.72 641.07 95.3 634.71 97.79 631.84 104.53 629.63 98.33 622.61 95.3"/><path class="cls-38" d="M647.34,65.62A29.23,29.23,0,0,1,641.21,67a48.34,48.34,0,0,1-6.12.38A50.26,50.26,0,0,1,629,67a29.32,29.32,0,0,1-6.12-1.38A28.67,28.67,0,0,1,629,64.25a49.47,49.47,0,0,1,12.24,0A29.88,29.88,0,0,1,647.34,65.62Z" transform="translate(0.82 -16.11)"/><path class="cls-38" d="M635.09,53.38a29.29,29.29,0,0,1,1.37,6.12,48.34,48.34,0,0,1,.38,6.12,50.26,50.26,0,0,1-.37,6.12,29.32,29.32,0,0,1-1.38,6.12,29.29,29.29,0,0,1-1.37-6.12,48.34,48.34,0,0,1-.38-6.12,52.37,52.37,0,0,1,.38-6.12A29.93,29.93,0,0,1,635.09,53.38Z" transform="translate(0.82 -16.11)"/><path class="cls-38" d="M643.75,74.28a30.17,30.17,0,0,1-5.3-3.36,49.31,49.31,0,0,1-4.59-4.06,46.94,46.94,0,0,1-4.07-4.6,29.45,29.45,0,0,1-3.36-5.3,29.89,29.89,0,0,1,5.31,3.36,49.31,49.31,0,0,1,4.59,4.06,50.76,50.76,0,0,1,4.06,4.6A29.45,29.45,0,0,1,643.75,74.28Z" transform="translate(0.82 -16.11)"/><path class="cls-38" d="M643.75,57a29.45,29.45,0,0,1-3.36,5.3,49.69,49.69,0,0,1-8.65,8.66,29.33,29.33,0,0,1-5.31,3.36,29.45,29.45,0,0,1,3.36-5.3,48.12,48.12,0,0,1,4.07-4.6,49.31,49.31,0,0,1,4.59-4.06A30.17,30.17,0,0,1,643.75,57Z" transform="translate(0.82 -16.11)"/><path class="cls-38" d="M663.24,93a19,19,0,0,1-4,.89,33.06,33.06,0,0,1-4,.25,31.28,31.28,0,0,1-4-.25,18.9,18.9,0,0,1-4-.89,18.9,18.9,0,0,1,4-.89,29.53,29.53,0,0,1,4-.24,31.1,31.1,0,0,1,4,.24A19.64,19.64,0,0,1,663.24,93Z" transform="translate(0.82 -16.11)"/><path class="cls-38" d="M655.29,85a19.64,19.64,0,0,1,.89,4,33,33,0,0,1,.24,4,31.26,31.26,0,0,1-.24,4,19,19,0,0,1-.89,4,19.07,19.07,0,0,1-.9-4,33.21,33.21,0,0,1-.24-4,31.12,31.12,0,0,1,.25-4A19,19,0,0,1,655.29,85Z" transform="translate(0.82 -16.11)"/><path class="cls-38" d="M660.91,98.6a19.13,19.13,0,0,1-3.44-2.18,31.34,31.34,0,0,1-3-2.64,30,30,0,0,1-2.63-3,18.59,18.59,0,0,1-2.18-3.44,19.13,19.13,0,0,1,3.44,2.18,33,33,0,0,1,5.62,5.62A19.7,19.7,0,0,1,660.91,98.6Z" transform="translate(0.82 -16.11)"/><path class="cls-38" d="M660.91,87.36a19.7,19.7,0,0,1-2.18,3.44,31.22,31.22,0,0,1-2.64,3,32.49,32.49,0,0,1-3,2.64,18.59,18.59,0,0,1-3.44,2.18,18.59,18.59,0,0,1,2.18-3.44,32,32,0,0,1,5.62-5.62A19.7,19.7,0,0,1,660.91,87.36Z" transform="translate(0.82 -16.11)"/><polygon class="cls-38" points="143.9 440.34 147.5 433.66 145.23 427.36 151.14 431.11 158.21 428.68 154.85 434.64 156.88 441.67 151.26 438.26 143.9 440.34"/><path class="cls-38" d="M123.33,395.64a29.61,29.61,0,0,1-3.88,4.93,50.41,50.41,0,0,1-9.49,7.74,29.47,29.47,0,0,1-5.62,2.8,29.8,29.8,0,0,1,3.88-4.94,49.05,49.05,0,0,1,4.51-4.15,50.35,50.35,0,0,1,5-3.58A30.29,30.29,0,0,1,123.33,395.64Z" transform="translate(0.82 -16.11)"/><path class="cls-38" d="M106.11,393.88a29.12,29.12,0,0,1,4.92,3.88,49.16,49.16,0,0,1,4.16,4.51,47.56,47.56,0,0,1,3.58,5,29.18,29.18,0,0,1,2.8,5.62,29.61,29.61,0,0,1-4.93-3.88,49.49,49.49,0,0,1-7.73-9.5A29.1,29.1,0,0,1,106.11,393.88Z" transform="translate(0.82 -16.11)"/><path class="cls-38" d="M126,404.62a29.75,29.75,0,0,1-6.23.74,50.53,50.53,0,0,1-12.18-1.24,29.51,29.51,0,0,1-6-2,29.12,29.12,0,0,1,6.23-.75,49.88,49.88,0,0,1,12.18,1.25A29.94,29.94,0,0,1,126,404.62Z" transform="translate(0.82 -16.11)"/><path class="cls-38" d="M115.08,391.19a29.93,29.93,0,0,1,.75,6.23,52.1,52.1,0,0,1-.25,6.13,48,48,0,0,1-1,6.05,28.32,28.32,0,0,1-2,5.95,29.1,29.1,0,0,1-.74-6.23,50,50,0,0,1,1.25-12.18A29.89,29.89,0,0,1,115.08,391.19Z" transform="translate(0.82 -16.11)"/><path class="cls-38" d="M182.94,416.82a20,20,0,0,1-2.52,3.2,32.73,32.73,0,0,1-6.16,5,19.13,19.13,0,0,1-3.65,1.82,19.1,19.1,0,0,1,2.52-3.21,31,31,0,0,1,2.93-2.69,30.67,30.67,0,0,1,3.23-2.32A19.13,19.13,0,0,1,182.94,416.82Z" transform="translate(0.82 -16.11)"/><path class="cls-38" d="M171.76,415.67a19.46,19.46,0,0,1,3.19,2.52,31,31,0,0,1,2.7,2.93,32.28,32.28,0,0,1,2.33,3.23,19.1,19.1,0,0,1,1.81,3.65,19,19,0,0,1-3.2-2.52,32.54,32.54,0,0,1-2.7-2.93,31,31,0,0,1-2.31-3.23A18.56,18.56,0,0,1,171.76,415.67Z" transform="translate(0.82 -16.11)"/><path class="cls-38" d="M184.68,422.65a19.45,19.45,0,0,1-4,.48,32.21,32.21,0,0,1-7.91-.81,19.45,19.45,0,0,1-3.86-1.29,18.82,18.82,0,0,1,4-.49,32.88,32.88,0,0,1,7.91.82A18.83,18.83,0,0,1,184.68,422.65Z" transform="translate(0.82 -16.11)"/><path class="cls-38" d="M177.58,413.93a18.87,18.87,0,0,1,.48,4,32.86,32.86,0,0,1-.8,7.91,19.45,19.45,0,0,1-1.29,3.86,18.82,18.82,0,0,1-.49-4,33.56,33.56,0,0,1,.81-7.91A19.45,19.45,0,0,1,177.58,413.93Z" transform="translate(0.82 -16.11)"/></g></g></svg>